<svg xmlns="http://www.w3.org/2000/svg" viewBox="0 0 182 69"><title>Asset 8</title><g fill="#fff"><path d="M61.3 11.87h4.41a3.4 3.4 0 0 1 3.46 3.66 3.43 3.43 0 0 1-3.46 3.69H63.9v3.28h-2.6zM65.18 17a1.29 1.29 0 0 0 1.35-1.46 1.26 1.26 0 0 0-1.31-1.43H63.9V17zm5.41-5.13h6.66v2.23h-4.06V16h3.24v2.23h-3.24v2h4.27v2.23h-6.87zm8.56 0h6.51v2.23h-3.91v8.4h-2.6zm7.78 0h2.6v5c0 .67-.12 1.81-.12 1.81a19 19 0 0 1 .89-1.81l2.94-5h2.66v10.62h-2.6v-4.95c0-.67.12-1.81.12-1.81a19 19 0 0 1-.89 1.81l-3 4.95h-2.6zm16.18-.18a5.38 5.38 0 0 1 5.56 5.42 5.56 5.56 0 1 1-11.12 0 5.37 5.37 0 0 1 5.56-5.42zm0 8.61a3 3 0 0 0 2.89-3.19 2.87 2.87 0 1 0-5.74 0 3 3 0 0 0 2.85 3.18zm7.21-8.43h2.6v4.25h3.86v-4.25h2.6v10.62h-2.6v-4.16h-3.86v4.16h-2.6zm13.75 0h2.73l3.61 10.63h-2.68l-.65-2.23h-3.31l-.64 2.23h-2.67zm2.41 6.32l-.59-2.07c-.19-.67-.43-1.83-.43-1.83s-.24 1.16-.43 1.83l-.61 2.07zm6.25-2.83v-3.49h7.13v10.62h-2.6v-8.4h-2.06v1.29c0 5.23-1.6 7.22-4.59 7.22v-2.35c1.26-.17 2.12-1.09 2.12-4.89zm9.37-3.49h2.6v3.28h1.81a3.43 3.43 0 0 1 3.49 3.69 3.4 3.4 0 0 1-3.46 3.66h-4.44zm3.92 8.4a1.26 1.26 0 0 0 1.31-1.43 1.29 1.29 0 0 0-1.33-1.46h-1.3v2.88zm5.36-8.4H154v4.25h3.86v-4.25h2.6v10.62h-2.6v-4.16H154v4.16h-2.6zm16.28-.18a5.38 5.38 0 0 1 5.56 5.42 5.56 5.56 0 1 1-11.12 0 5.37 5.37 0 0 1 5.56-5.42zm0 8.61a3 3 0 0 0 2.87-3.18 2.87 2.87 0 1 0-5.74 0 3 3 0 0 0 2.87 3.17zm7.21-8.43h6.66v2.23h-4.06V16h3.24v2.23h-3.24v2h4.27v2.23h-6.87zM63.76 29.7h2.73l3.61 10.63h-2.67l-.65-2.23h-3.32l-.64 2.23h-2.68zm2.4 6.3l-.59-2c-.19-.67-.43-1.83-.43-1.83s-.24 1.16-.43 1.83l-.64 2zm5.01-6.3h6.51v2.23h-3.91v8.4h-2.6zm7.78 0h6.65v2.23h-4.05v1.93h3.24v2.23h-3.24v2h4.27v2.23h-6.87zm8.56 0h2.6V34H94v-4.3h2.6v10.63H94v-4.16h-3.89v4.16h-2.6zm13.59 2.23h-3.22V29.7h9.05v2.23h-3.23v8.4h-2.6zm11.9-2.41a5.72 5.72 0 0 1 4 1.5l-1.2 2a4.34 4.34 0 0 0-2.66-1.08 2.82 2.82 0 0 0-3 3 3 3 0 0 0 3 3.2 4.19 4.19 0 0 0 2.82-1.31l1.34 1.9a5.79 5.79 0 0 1-4.3 1.78 5.28 5.28 0 0 1-5.58-5.51 5.35 5.35 0 0 1 5.58-5.48zm7.9 2.41h-3.23V29.7h9.05v2.23h-3.22v8.4h-2.6zm7.1-2.23h3.91c2.13 0 3.61 1 3.61 2.78a2.6 2.6 0 0 1-1.23 2.26 2.38 2.38 0 0 1 1.71 2.42c0 2.32-1.93 3.17-4 3.17h-4zm4 4.12a.9.9 0 0 0 .94-1 .87.87 0 0 0-1-.91h-1.29v1.89zm.22 4.28a1.06 1.06 0 0 0 1.11-1.1 1 1 0 0 0-1.11-1.08h-1.58v2.2zm10.41-8.58a5.38 5.38 0 0 1 5.56 5.42 5.56 5.56 0 1 1-11.12 0 5.37 5.37 0 0 1 5.56-5.42zm0 8.61a3 3 0 0 0 2.87-3.18 2.87 2.87 0 1 0-5.74 0 3 3 0 0 0 2.87 3.18zM61.3 47.54h2.6v4.25h3.86v-4.25h2.6v10.62h-2.6V54H63.9v4.16h-2.6zm16.28-.18a5.38 5.38 0 0 1 5.56 5.42 5.56 5.56 0 1 1-11.12 0 5.37 5.37 0 0 1 5.56-5.42zm0 8.61a3 3 0 0 0 2.87-3.18 2.87 2.87 0 1 0-5.74 0A3 3 0 0 0 77.58 56zm7.21-8.43h3.91c2.13 0 3.61 1 3.61 2.78a2.59 2.59 0 0 1-1.23 2.26A2.38 2.38 0 0 1 92.74 55c0 2.32-1.93 3.17-4 3.17h-3.95zm3.94 4.12a.9.9 0 0 0 .94-1 .87.87 0 0 0-1-.91h-1.28v1.89zm.22 4.28a1.06 1.06 0 0 0 1.13-1.11 1 1 0 0 0-1.08-1.1h-1.61v2.2zm10.43-8.58a5.38 5.38 0 0 1 5.56 5.42 5.56 5.56 0 1 1-11.12 0 5.37 5.37 0 0 1 5.56-5.42zm0 8.61a3 3 0 0 0 2.87-3.18 2.87 2.87 0 1 0-5.74 0A3 3 0 0 0 99.38 56zm12.22-8.61a5.72 5.72 0 0 1 4 1.5l-1.2 2a4.34 4.34 0 0 0-2.66-1.08 2.82 2.82 0 0 0-3 3 3 3 0 0 0 3 3.2 4.19 4.19 0 0 0 2.82-1.31l1.34 1.9a5.79 5.79 0 0 1-4.28 1.78 5.28 5.28 0 0 1-5.62-5.52 5.35 5.35 0 0 1 5.6-5.47zm7.9 2.4h-3.23v-2.22h9.05v2.23h-3.22v8.4h-2.6zm7.14-2.22h6.66v2.23h-4.06v1.93h3.24v2.23h-3.24v2h4.27v2.23h-6.87zm8.56 0h2.6v5c0 .67-.12 1.81-.12 1.81a19 19 0 0 1 .89-1.81l2.94-5h2.63v10.62h-2.6v-4.95c0-.67.12-1.81.12-1.81a19 19 0 0 1-.89 1.81l-3 4.95h-2.57zm1.8-2.75v-.16h1.9v.18a.92.92 0 0 0 1.84 0v-.18h1.89v.16c0 1.46-1.31 2.27-2.81 2.27s-2.82-.82-2.82-2.27zM23.64 0A23.57 23.57 0 0 0 .33 20.15a8.78 8.78 0 0 0-.25 1.27c-.19 1.16 0 10.32 0 10.32l.14 5 .19 7L.88 69c6.6-.2 10.6-6.69 12.85-13.12a46.25 46.25 0 0 0 2.42-11.23c.17-2.86.33-8.05.44-12.29L16.33 27h.36l5.75 3.08 5.85-.25-2.51 7.67-3.14 9.61h1a23.57 23.57 0 0 0 0-47.11zM5.57 20.34l5.2-1.77v1.31l-1.09.32v1.62l1.09.31v1.31l-5.2-1.77zm5.2 23.84H6.65V46h4.12v1.27h-5.2v-4.4h5.2zm0-2.37h-5.2v-2.15A1.67 1.67 0 0 1 7.36 38a1.68 1.68 0 0 1 1.8 1.7v.89h1.61zm0-4.55h-5.2V34h1.09v2h.94v-1.59h1.09V36h1v-2.1h1.09zm-2.61-3.82a2.62 2.62 0 0 1-2.68-2.73 2.8 2.8 0 0 1 .74-2l1 .59a2.13 2.13 0 0 0-.53 1.3 1.38 1.38 0 0 0 1.48 1.47 1.45 1.45 0 0 0 1.57-1.47 2.06 2.06 0 0 0-.64-1.38l.93-.66a2.84 2.84 0 0 1 .87 2.1 2.59 2.59 0 0 1-2.74 2.78zm0-5.08a2.62 2.62 0 0 1-2.68-2.73 2.79 2.79 0 0 1 .74-2l1 .59a2.13 2.13 0 0 0-.53 1.3A1.38 1.38 0 0 0 8.13 27a1.45 1.45 0 0 0 1.57-1.47 2.06 2.06 0 0 0-.64-1.38l.93-.66a2.84 2.84 0 0 1 .87 2.1 2.59 2.59 0 0 1-2.7 2.77zm23-2.16a3.18 3.18 0 0 1-.4.43 9.62 9.62 0 0 1-8.15 1.73c-2.79-.82-5-2.28-5.65-3.65a2.3 2.3 0 0 1-.16-.44 9.14 9.14 0 0 1-.32-4.57 15.85 15.85 0 0 0 6.35 3.3 16 16 0 0 0 9.75-.45 6.86 6.86 0 0 1-1.45 3.65zm-8.1-4.2a14.94 14.94 0 0 1-6.37-3.4 8.14 8.14 0 0 1 3.44-4.36 8.26 8.26 0 0 1 12.56 7.1 14.86 14.86 0 0 1-9.63.66z"/><path d="M7.36 39.26a.62.62 0 0 0-.7.64v.65h1.41v-.63a.63.63 0 0 0-.71-.66zM6.75 21s.57.12.9.21l1 .3v-1l-1 .29c-.33.09-.9.2-.9.2z"/></g></svg>