<svg xmlns="http://www.w3.org/2000/svg" viewBox="0 0 411 156"><title>Asset 1</title><g fill="#184381"><path d="M138.48 26.81h10c4.67 0 7.82 3.42 7.82 8.26s-3.16 8.33-7.82 8.33h-4.1v7.42h-5.87zm8.76 11.55c2 0 3.05-1.38 3.05-3.29s-1-3.22-3-3.22h-3v6.51zm12.22-11.55h15v5h-9.16v4.36h7.32v5h-7.32v4.53h9.7v5h-15.54zm19.34 0h14.7v5h-8.83v19h-5.87zm17.56 0h5.88V38c0 1.51-.27 4.1-.27 4.1h.03a42.92 42.92 0 0 1 2-4.1l6.65-11.21h5.94v24h-5.87V39.63c0-1.51.27-4.1.27-4.1h.01a43 43 0 0 1-2 4.1l-6.68 11.18h-5.91zm36.56-.41a12.14 12.14 0 0 1 12.56 12.25 12.55 12.55 0 0 1-25.11 0 12.14 12.14 0 0 1 12.55-12.25zm0 19.44c3.59 0 6.48-3.09 6.48-7.18a6.49 6.49 0 1 0-13 0c.04 4.09 2.93 7.18 6.52 7.18zm16.28-19.03h5.88v9.6h8.73v-9.6h5.88v24h-5.87v-9.4h-8.73v9.4h-5.89zm31.06 0h6.18l8.16 24h-6l-1.48-5h-7.49l-1.44 5h-6zm5.44 14.27l-1.34-4.67c-.44-1.51-1-4.13-1-4.13h-.07s-.54 2.62-1 4.13L281 41.07zm14.13-6.39v-7.88h16.11v24h-5.87v-19h-4.67v2.92c0 11.82-3.63 16.31-10.37 16.31v-5.3c2.86-.37 4.8-2.45 4.8-11.05zM321 26.81h5.88v7.42H331c4.67 0 7.82 3.49 7.82 8.33s-3.16 8.26-7.82 8.26h-10zm8.86 19c1.95 0 3-1.31 3-3.22s-1-3.29-3.05-3.29h-2.89v6.51zm12.14-19h5.88v9.6h8.73v-9.6h5.88v24h-5.87v-9.4h-8.73v9.4H342zm36.73-.41a12.14 12.14 0 0 1 12.55 12.25 12.55 12.55 0 0 1-25.11 0 12.14 12.14 0 0 1 12.56-12.25zm0 19.44c3.59 0 6.48-3.09 6.48-7.18a6.49 6.49 0 1 0-13 0c.04 4.09 2.93 7.18 6.52 7.18zM395 26.81h15v5h-9.16v4.36h7.32v5h-7.32v4.53h9.63v5H395zM144 67.09h6.18l8.16 24h-6l-1.48-5h-7.49l-1.44 5h-6zm5.44 14.27l-1.34-4.67c-.44-1.51-1-4.13-1-4.13h-.07s-.54 2.62-1 4.13l-1.38 4.67zm11.33-14.27h14.7v5h-8.83v19h-5.87zm17.56 0h15v5h-9.16v4.36h7.32v5h-7.32v4.53h9.63v5h-15.47zm19.34 0h5.88v9.6h8.73v-9.6h5.88v24h-5.87V81.7h-8.73v9.4h-5.87zm30.72 5.04h-7.29v-5h20.44v5h-7.28v19h-5.87zm26.86-5.44a12.91 12.91 0 0 1 9 3.39l-2.72 4.43a9.81 9.81 0 0 0-6-2.45c-4.8 0-6.78 3.39-6.78 6.85s2.15 7.22 6.78 7.22a9.47 9.47 0 0 0 6.38-3l3 4.3a13.09 13.09 0 0 1-9.67 4c-7.72 0-12.59-5.34-12.59-12.45s5.18-12.29 12.6-12.29zm17.86 5.44h-7.28v-5h20.44v5H279v19h-5.87zm16.11-5.04h8.83c4.8 0 8.16 2.15 8.16 6.28a5.86 5.86 0 0 1-2.79 5.1v.07a5.38 5.38 0 0 1 3.76 5.4c0 5.24-4.36 7.15-9.13 7.15h-8.83zm8.9 9.3a2 2 0 0 0 2.11-2.22 2 2 0 0 0-2.22-2h-2.91v4.26zm.5 9.67a2.38 2.38 0 0 0 2.55-2.52 2.31 2.31 0 0 0-2.52-2.45h-3.55v5zm23.57-19.37a12.14 12.14 0 0 1 12.55 12.25 12.55 12.55 0 1 1-25.11 0 12.14 12.14 0 0 1 12.56-12.25zm0 19.44c3.59 0 6.48-3.09 6.48-7.18a6.49 6.49 0 1 0-13 0c.04 4.05 2.93 7.18 6.52 7.18zm-183.71 21.25h5.88V117h8.73v-9.6H159v24h-5.87V122h-8.73v9.4h-5.87zm36.76-.38a12.14 12.14 0 0 1 12.55 12.25 12.55 12.55 0 1 1-25.11 0A12.14 12.14 0 0 1 175.24 107zm0 19.44c3.59 0 6.48-3.09 6.48-7.18a6.49 6.49 0 1 0-13 0c.04 4.07 2.93 7.16 6.52 7.16zm16.29-19.06h8.83c4.8 0 8.16 2.15 8.16 6.28a5.86 5.86 0 0 1-2.79 5.1v.07a5.38 5.38 0 0 1 3.76 5.4c0 5.24-4.36 7.15-9.13 7.15h-8.83zm8.9 9.3a2 2 0 0 0 2.11-2.22 2 2 0 0 0-2.22-2h-2.92v4.26zm.5 9.67a2.38 2.38 0 0 0 2.55-2.52 2.31 2.31 0 0 0-2.52-2.45h-3.56v5zM224.49 107A12.14 12.14 0 0 1 237 119.23a12.55 12.55 0 1 1-25.11 0 12.14 12.14 0 0 1 12.6-12.23zm0 19.44c3.59 0 6.48-3.09 6.48-7.18a6.49 6.49 0 1 0-13 0c.03 4.07 2.93 7.16 6.52 7.16zm27.6-19.44a12.91 12.91 0 0 1 9 3.39l-2.72 4.43a9.81 9.81 0 0 0-6-2.45c-4.8 0-6.78 3.39-6.78 6.85s2.15 7.22 6.78 7.22a9.47 9.47 0 0 0 6.38-3l3 4.3a13.09 13.09 0 0 1-9.67 4c-7.72 0-12.59-5.34-12.59-12.45s5.18-12.29 12.6-12.29zm17.91 5.42h-7.28v-5h20.44v5h-7.28v19H270zm16.07-5.04h15v5h-9.16v4.36h7.32v5h-7.32v4.53h9.63v5h-15.47zm19.34 0h5.88v11.21c0 1.51-.27 4.1-.27 4.1h.07a43 43 0 0 1 2-4.1l6.65-11.21h5.94v24h-5.87V120.2c0-1.51.27-4.1.27-4.1H320a43 43 0 0 1-2 4.1l-6.68 11.18h-5.91zm4.1-6.21v-.37h4.3v.4a2.08 2.08 0 0 0 4.16 0v-.4h4.26v.37c0 3.29-3 5.14-6.34 5.14s-6.39-1.85-6.39-5.14zM53.4 0A53.24 53.24 0 0 0 .73 45.53a19 19 0 0 0-.56 2.86C-.25 51 .23 71.7.23 71.7l.31 11.19L1 98.64l1 57.17c14.92-.45 23.95-15.11 29-29.63a104.43 104.43 0 0 0 5.47-25.38c.39-6.47.75-18.2 1-27.76L36.88 61h.82l13 6.95 13.22-.55-5.68 17.3-7.1 21.71c.75 0 1.5.06 2.26.06A53.23 53.23 0 1 0 53.4 0zM12.57 46l11.76-4v3l-2.47.72v3.67l2.47.71v3L12.57 49zm11.76 53.82H15V104h9.31v2.88H12.57v-9.94h11.76zm0-5.35H12.57v-4.89a3.76 3.76 0 0 1 4-3.83 3.79 3.79 0 0 1 4.08 3.83v2h3.63zm0-10.28H12.57v-7.37H15v4.49h2.14v-3.59h2.47v3.59h2.22v-4.72h2.47zm-5.9-8.66a5.92 5.92 0 0 1-6.05-6.17A6.32 6.32 0 0 1 14 65l2.17 1.33a4.81 4.81 0 0 0-1.17 2.9 3.12 3.12 0 0 0 3.36 3.32 3.28 3.28 0 0 0 3.54-3.32 4.67 4.67 0 0 0-1.44-3.13l2.1-1.48a6.42 6.42 0 0 1 2 4.74 5.85 5.85 0 0 1-6.14 6.17zm0-11.47a5.92 5.92 0 0 1-6.05-6.17 6.31 6.31 0 0 1 1.62-4.4l2.17 1.33A4.8 4.8 0 0 0 15 57.77a3.13 3.13 0 0 0 3.36 3.32 3.28 3.28 0 0 0 3.54-3.32 4.67 4.67 0 0 0-1.44-3.13l2.1-1.48a6.41 6.41 0 0 1 2 4.74 5.84 5.84 0 0 1-6.14 6.16zm51.89-4.89a6.86 6.86 0 0 1-.9 1c-3.49 3.09-11.67 5.89-18.42 3.89-6.3-1.85-11.19-5.15-12.76-8.25a5 5 0 0 1-.37-1 20.61 20.61 0 0 1-.73-10.33 35.83 35.83 0 0 0 14.45 7.44 36.13 36.13 0 0 0 22-1c-.59 3.26-1.16 5.76-3.28 8.26zM52.1 49.68c-5.6-1.58-10.71-4.1-14.4-7.68a18.39 18.39 0 0 1 7.77-9.84 18.65 18.65 0 0 1 28.37 16 33.56 33.56 0 0 1-21.74 1.52z"/><path d="M16.62 88.68A1.39 1.39 0 0 0 15 90.12v1.47h3.19v-1.42a1.43 1.43 0 0 0-1.57-1.49zm-1.37-41.23s1.28.26 2 .47l2.29.67v-2.27l-2.27.68c-.74.19-2.02.45-2.02.45z"/></g></svg>