<svg xmlns="http://www.w3.org/2000/svg" viewBox="0 0 63 48"><title>infographics-1.svg</title><g fill="#fff"><path d="M59.86 24.14h-5a.63.63 0 0 1-.63-.64v-7.14a.63.63 0 0 1 .63-.63.63.63 0 0 1 .63.63v6.5h4.36a.63.63 0 1 1 0 1.27zM37.1 37.91H4.16A4.16 4.16 0 0 1 0 33.75v-2a.64.64 0 0 1 .63-.64L37.1 31a.63.63 0 0 1 0 1.27l-35.84.08v1.36a2.89 2.89 0 0 0 2.89 2.89H37.1a.63.63 0 1 1 0 1.27z"/><path d="M30.93 35.17h-7.06a2.41 2.41 0 0 1-2.41-2.41v-1a.64.64 0 0 1 .63-.64H32.7a.64.64 0 0 1 .63.64v1a2.41 2.41 0 0 1-2.4 2.41zm-8.2-2.78v.37a1.14 1.14 0 0 0 1.14 1.14h7.06a1.14 1.14 0 0 0 1.14-1.14v-.37zM5 32.39a.64.64 0 0 1-.63-.63V6.63a4.16 4.16 0 0 1 4.14-4.16H18a.63.63 0 1 1 0 1.27H8.51a2.89 2.89 0 0 0-2.89 2.89v25.13a.64.64 0 0 1-.62.63zM49.8 17a.64.64 0 0 1-.63-.63V6.63a2.89 2.89 0 0 0-2.89-2.89H30.54a.63.63 0 1 1 0-1.27h15.74a4.16 4.16 0 0 1 4.16 4.16v9.74a.64.64 0 0 1-.64.63z"/><path d="M7.68 32.39a.63.63 0 0 1-.68-.63V5.94a.64.64 0 0 1 .63-.64h10.22a.63.63 0 1 1 0 1.27H8.31v25.19a.63.63 0 0 1-.63.63zM47.11 17a.64.64 0 0 1-.64-.63V6.58H30.32a.63.63 0 0 1 0-1.27h16.8a.64.64 0 0 1 .63.64v10.42a.63.63 0 0 1-.64.63z"/><path d="M62.38 48.12H37.1a.63.63 0 0 1-.63-.63V16.37a.63.63 0 0 1 .63-.63h2.4a.63.63 0 1 1 0 1.27h-1.76v29.84h24V23.78L54.63 17h-9a.63.63 0 1 1 0-1.27h9.3a.63.63 0 0 1 .44.17l7.45 7.1a.64.64 0 0 1 .2.46v24a.63.63 0 0 1-.64.66zM27.21 14.89c-2.47 0-6.56-7.16-7.75-9.35a3 3 0 0 1 .48-3.34c.12-.12 1.22-1.15 4.3-1.89A10.62 10.62 0 0 1 26.73 0a6.69 6.69 0 0 1 2.71.48 3.29 3.29 0 0 1 1.74 2.94c-.1 1.79-.73 10.73-3.64 11.42a1.48 1.48 0 0 1-.33.05zm-.48-13.62a9.41 9.41 0 0 0-2.18.27 8.72 8.72 0 0 0-3.71 1.56 1.69 1.69 0 0 0-.26 1.83c2.27 4.18 5.45 8.69 6.63 8.69 1.35-.32 2.44-5.62 2.7-10.26a2 2 0 0 0-1-1.73 5.63 5.63 0 0 0-2.18-.36zm8.02 31.04a.63.63 0 0 1-.61-.46C31 21 28.56 17.1 27.3 17.1c-2 0-4.8 5.38-7.44 14.32a.64.64 0 0 1-1.22-.36c3-10.06 5.88-15.18 8.64-15.22.89 0 3.57 0 8.09 15.67a.63.63 0 0 1-.43.78z"/><path d="M34 21.42a7.2 7.2 0 0 1-4.58-2.13.63.63 0 0 1 .91-.88A6 6 0 0 0 34 20.15a3.59 3.59 0 0 0 2.61-1.26.63.63 0 1 1 .92.87A4.8 4.8 0 0 1 34 21.42zm-15.65 2.23h-.48c-1.67-.19-3.08-1.33-4.18-3.39a.63.63 0 1 1 1.12-.6c.89 1.67 2 2.59 3.2 2.72 2.48.28 5-2.56 5-2.59a.63.63 0 1 1 1 .83c-.16.11-2.71 3.03-5.66 3.03z"/><path d="M12.43 20.59c-1.51 0-1.91-1.22-2.08-2.14-.32-1.77 1.1-2.74 2.26-3.13-.77-4.31-.13-4.49.3-4.61a1.2 1.2 0 0 1 .32 0c1 0 1.76 1.23 2.28 3.88.1.49.21.94.32 1.38.35 1.43.63 2.56.06 3.43a2.45 2.45 0 0 1-1.74 1l-.36.07a7.37 7.37 0 0 1-1.36.12zm1.09-8.23a27.24 27.24 0 0 0 .44 3.3.64.64 0 0 1-.51.74c-.08 0-2.11.42-1.86 1.82.2 1.09.51 1.09.83 1.09a7 7 0 0 0 1.13-.16l.36-.07a1.33 1.33 0 0 0 .9-.43c.27-.41 0-1.35-.23-2.44-.11-.43-.23-.92-.33-1.44a9.21 9.21 0 0 0-.73-2.41zm30.1 7.47h-2.16a2.73 2.73 0 0 1 0-5.46h2.16a2.73 2.73 0 1 1 0 5.46zm-2.16-4.19a1.46 1.46 0 0 0 0 2.92h2.16a1.46 1.46 0 1 0 0-2.92zm18.4 19.1h-8.55a.64.64 0 0 1-.63-.64v-8.31a.63.63 0 0 1 .63-.63h8.55a.63.63 0 0 1 .63.63v8.32a.64.64 0 0 1-.63.63zm-7.91-1.27h7.28v-7h-7.28zm-3.23 12.47h-8.55a.63.63 0 0 1-.63-.63v-5.76a.63.63 0 0 1 .63-.63h8.55a.63.63 0 0 1 .63.63v5.75a.63.63 0 0 1-.63.64zm-7.92-1.27h7.28v-4.49H40.8zm7.92-21.02h-4.28a.63.63 0 1 1 0-1.27h4.27a.63.63 0 0 1 0 1.27zm0 2.77h-8.55a.63.63 0 1 1 0-1.27h8.55a.63.63 0 0 1 0 1.27zm0 2.78h-8.55a.63.63 0 1 1 0-1.27h8.55a.63.63 0 0 1 0 1.27zm0 2.8h-8.55a.63.63 0 1 1 0-1.27h8.55a.63.63 0 0 1 0 1.27zm0 2.74h-8.55a.63.63 0 1 1 0-1.27h8.55a.63.63 0 0 1 0 1.27zm11.14 5.44h-8.55a.63.63 0 1 1 0-1.27h8.54a.63.63 0 1 1 0 1.27zm0 2.88h-8.55a.64.64 0 0 1 0-1.27h8.54a.64.64 0 0 1 0 1.27zm0-5.54H40.17a.63.63 0 1 1 0-1.27h19.69a.63.63 0 1 1 0 1.27z"/></g></svg>